<?xml version="1.0" encoding="UTF-8"?>
<svg id="Layer_1" xmlns="http://www.w3.org/2000/svg" version="1.1" viewBox="0 0 838.85 1100.97">
  <!-- Generator: Adobe Illustrator 30.1.0, SVG Export Plug-In . SVG Version: 2.1.1 Build 136)  -->
  <defs>
    <style>
      .st0 {
        fill: #121713;
        font-family: Raleway-Black, Raleway;
        font-size: 163.05px;
        font-weight: 800;
      }

      .st1 {
        fill: #f49f1e;
      }

      .st1, .st2 {
        fill-rule: evenodd;
      }

      .st2 {
        fill: #399e65;
      }

      .st3 {
        fill: #245d3b;
        font-family: Raleway-SemiBold, Raleway;
        font-size: 39.45px;
        font-weight: 600;
      }
    </style>
  </defs>
  <path class="st1" d="M71.27,343.86c24.77,14.83,41.29,41.63,41.29,72.47,0,41.29-29.66,75.5-68.76,82.75,1.18,35.9,7.42,70.61,17.86,103.14,4.55-.67,8.93-1.01,13.65-1.01,46.51,0,84.26,37.75,84.26,84.26,0,20.22-7.25,38.93-19.21,53.42,23.43,25.95,50.39,48.7,80.05,67.58,15.5-17.86,38.26-29.16,63.7-29.16,46.18,0,83.76,37.24,84.26,83.25,17.36,2.53,35.05,3.71,53.25,3.71s34.72-1.18,51.57-3.54c.67-45.84,38.09-82.91,84.26-82.91,25.45,0,48.37,11.46,63.87,29.49,29.83-18.71,56.79-41.29,80.39-67.24-11.8-14.49-18.87-33.03-18.87-53.09,0-46.51,37.58-84.26,84.09-84.26,4.89,0,9.44.34,13.99,1.18,10.62-32.69,17.02-67.24,18.37-103.14-38.93-7.42-68.25-41.63-68.25-82.75,0-30.84,16.52-57.97,41.46-72.47-13.15-32.86-30.84-63.37-52.24-90.84-12.13,6.74-26.96,15.5-40.95,10.62-37.92-13.31-71.79-31.51-101.45-52.41,21.74,27.3,43.82,54.94,66.4,81.74,97.58,115.44,90.16,286.49-16.85,393.34-54.94,54.77-128.25,85.44-205.94,85.44s-151-30.67-205.77-85.44c-106.85-106.85-114.43-277.9-16.85-393.34,23.09-27.47,45.67-55.78,67.92-83.93-32.86,25.11-67.58,44.83-101.62,53.42-15,0-29.16-3.88-41.29-10.79-21.4,27.47-39.27,57.8-52.58,90.5h0Z"/>
  <path class="st2" d="M421.47,23.15c-18.71,39.1-43.48,83.42-76.17,129.93-28.31,40.61-110.55,141.73-125.38,159.26-87.63,103.64-82.41,258.69,15.17,356.1h0c51.4,51.74,118.98,77.52,186.39,77.52s134.82-25.78,186.56-77.52h0c36.74-36.57,60.33-81.23,70.78-128.42-11.46,24.94-26.63,47.52-44.49,65.39h0c-35.73,35.56-82.07,53.25-128.59,53.25s-93.03-17.7-128.59-53.25h0c-67.24-67.24-70.78-174.09-10.45-245.54,10.28-12.13,66.9-81.74,86.45-109.88.22-.31.43-.62.65-.93,33.18-47.5,34.97-110.13,5.08-159.76-15.05-24.99-29.86-50.5-37.41-66.14Z"/>
  <text transform="translate(30.96 1028.12)"><tspan class="st0"><tspan x="0" y="0">SANTOSH</tspan></tspan><tspan class="st3"><tspan x="-1.14" y="48.38">PETROCHEMICAL INNOVATIONS PVT LTD</tspan></tspan></text>
  <path class="st2" d="M408.55,395.8c-14.79,19.55-31.88,58.35-22.55,88.41,12.53,40.36,34.89,61.92,76.15,72.09,19.69,4.85,46.1,5.97,70.34,5.67,8.01-.1,18.63-.11,23.37,6.35,1.61,2.2,2.97,6.67,3.42,9.36,1.84,10.97-2.8,21.21,1.04,13.59,3.84-7.61,6.65-24.62,2.42-32.02-5.98-10.45-19.6-13-31.46-15.05-18.85-3.26-47.05-9.11-58.49-24.44-9.79-13.12-11.11-31.06-7.32-46.98,3.79-15.93,12.1-30.35,20.31-44.51,10.53-18.18,21.06-36.36,31.6-54.54,6.9-11.91,14.26-23.83,17.81-37.13,11.09-41.45-13.6-80.98-21.99-100.04,1.04,12.39-3.98,24.47-9.87,35.41-23.33,43.33-77.66,101.22-94.76,123.82Z"/>
</svg>